<?xml version="1.0" encoding="utf-8"?>
<!-- Generator: Adobe Illustrator 26.2.1, SVG Export Plug-In . SVG Version: 6.00 Build 0)  -->
<svg version="1.1" xmlns="http://www.w3.org/2000/svg" xmlns:xlink="http://www.w3.org/1999/xlink" x="0px" y="0px" width="100px"
	 height="100px" viewBox="0 0 100 100" style="enable-background:new 0 0 100 100;" xml:space="preserve">
<g id="レイヤー_1">
</g>
<g id="レイヤー_2">
	<g>
		<path d="M84.7,38.5H68V27.8C68,18.5,60.5,11,51.2,11c-9.3,0-16.8,7.5-16.8,16.8v10.7H17.7L16.2,40v45.5l1.5,1.5h67l1.5-1.5V40
			L84.7,38.5z M37.4,27.8c0-7.6,6.2-13.8,13.8-13.8C58.8,14,65,20.2,65,27.8v10.7H37.4V27.8z M83.2,84h-64V41.5h64V84z"/>
		<path d="M49.7,65.1v9.1h3v-9.1c2.5-0.7,4.3-2.9,4.3-5.6c0-3.2-2.6-5.8-5.8-5.8s-5.8,2.6-5.8,5.8C45.4,62.2,47.2,64.4,49.7,65.1z"
			/>
	</g>
</g>
</svg>
